<svg width="36" height="30" viewBox="0 0 36 30" fill="none" xmlns="http://www.w3.org/2000/svg">
<g clip-path="url(#clip0_901_91)">
<path d="M35.9198 29.0371L26.0426 10.9745C25.8043 10.5362 25.1907 10.5319 24.944 10.9637L19.2104 21.0292C19.0965 21.2278 19.0944 21.4718 19.204 21.6726L23.5775 29.6718C23.6893 29.8769 23.9002 30.0022 24.13 30.0022H35.3673C35.8502 30 36.156 29.4689 35.9198 29.0371Z" fill="white"/>
<path d="M21.88 9.66606L16.7748 0.330327C16.5323 -0.112278 15.9102 -0.110119 15.6698 0.332486L0.0800965 29.0392C-0.153971 29.471 0.149684 30.0021 0.63258 30.0021H9.58619H11.2183H19.1682C19.6511 30.0021 19.9568 29.4689 19.7207 29.0371L15.8807 22.0158C15.7732 21.8194 15.7732 21.5819 15.8786 21.3854L21.8779 10.2965C21.9875 10.1 21.9854 9.86253 21.88 9.66606Z" fill="white"/>
</g>
<defs>
<clipPath id="clip0_901_91">
<rect width="36" height="30" fill="white"/>
</clipPath>
</defs>
</svg>
